<svg width="1400" height="267" viewBox="0 0 1400 267" fill="none" xmlns="http://www.w3.org/2000/svg">
<path opacity="0.2" d="M344 0L344 264" stroke="white"/>
<path opacity="0.2" d="M1400 132L5.4121e-05 132" stroke="white"/>
<path opacity="0.2" d="M700 0L700 264" stroke="white"/>
<path opacity="0.2" d="M1056 0L1056 264" stroke="white"/>
<path d="M343 128H345V132H343V128Z" fill="#A0ABBB"/>
<path d="M348 131V133H344V131L348 131Z" fill="#A0ABBB"/>
<path d="M343 132H345V136H343V132Z" fill="#A0ABBB"/>
<path d="M344 131V133H340L340 131H344Z" fill="#A0ABBB"/>
<path d="M699 128H701V132H699V128Z" fill="#A0ABBB"/>
<path d="M704 131V133H700V131L704 131Z" fill="#A0ABBB"/>
<path d="M699 132H701V136H699V132Z" fill="#A0ABBB"/>
<path d="M700 131V133H696L696 131H700Z" fill="#A0ABBB"/>
<path d="M1055 128H1057V132H1055V128Z" fill="#A0ABBB"/>
<path d="M1060 131V133H1056V131L1060 131Z" fill="#A0ABBB"/>
<path d="M1055 132H1057V136H1055V132Z" fill="#A0ABBB"/>
<path d="M1056 131V133H1052L1052 131H1056Z" fill="#A0ABBB"/>
</svg>
