<svg width="217" height="63" viewBox="0 0 217 63" fill="none" xmlns="http://www.w3.org/2000/svg">
<path d="M78.3067 48.5278C75.026 50.0796 71.4053 50.8277 67.7597 50.707C62.3263 50.707 57.9762 49.0037 54.7094 45.5971C51.4427 42.1906 49.8093 37.7199 49.8093 32.1852C49.8093 26.2364 51.647 21.4287 55.3223 17.7621C57.1324 15.9517 59.31 14.5277 61.7165 13.5808C64.123 12.634 66.7057 12.1849 69.3002 12.2623C72.3773 12.1651 75.4419 12.6861 78.3028 13.7928V18.4365C75.5343 16.9411 72.4136 16.1723 69.2474 16.206C67.2582 16.1339 65.2762 16.4788 63.4359 17.2173C61.5956 17.9558 59.94 19.0707 58.5812 20.4864C55.8554 23.34 54.4927 27.1533 54.4934 31.9265C54.4934 36.458 55.7674 40.0681 58.3153 42.7568C59.5896 44.0925 61.1453 45.1444 62.8761 45.8407C64.6069 46.5369 66.4718 46.8611 68.3433 46.7909C71.8368 46.8779 75.286 46.0156 78.3038 44.3006L78.3067 48.5278Z" fill="#C4CBCC"/>
<path d="M105.289 37.8658H86.0327C86.1031 40.8227 86.9199 43.1056 88.4832 44.7144C89.3221 45.5359 90.3301 46.1755 91.4409 46.5913C92.5517 47.007 93.7403 47.1895 94.9287 47.1267C98.0177 47.1209 101.01 46.0761 103.398 44.1694V48.1644C101 49.8588 97.8308 50.706 93.8896 50.706C92.1958 50.7913 90.5035 50.5115 88.9336 49.8866C87.3637 49.2618 85.9549 48.3074 84.8079 47.0915C82.606 44.6818 81.505 41.2891 81.505 36.9136C81.3435 33.2187 82.6354 29.6027 85.1178 26.8023C86.2263 25.5524 87.6038 24.5551 89.1527 23.8811C90.7016 23.2071 92.3838 22.873 94.0802 22.9024C97.6493 22.9024 100.41 24.0264 102.363 26.2744C104.316 28.5224 105.294 31.644 105.296 35.639L105.289 37.8658ZM100.814 34.2588C100.927 32.1974 100.281 30.1644 98.9901 28.5259C98.3709 27.8394 97.5999 27.2982 96.7349 26.9432C95.87 26.5882 94.9336 26.4285 93.9962 26.4761C93.016 26.4605 92.0431 26.644 91.1399 27.0147C90.2366 27.3855 89.4227 27.9355 88.7501 28.6296C87.2581 30.1751 86.3232 32.1509 86.0864 34.2588H100.814Z" fill="#C4CBCC"/>
<path d="M132.405 50.0839H128.038V34.9342C128.038 29.2967 125.925 26.4777 121.699 26.477C120.668 26.456 119.646 26.6608 118.708 27.0763C117.77 27.4917 116.94 28.1071 116.28 28.8769C114.816 30.5666 114.052 32.7259 114.135 34.9342V50.0839H109.768V23.5207H114.135V27.9305H114.239C115.104 26.3665 116.399 25.0676 117.98 24.1788C119.56 23.29 121.363 22.8465 123.188 22.8977C124.474 22.8205 125.761 23.0345 126.948 23.5229C128.136 24.0112 129.19 24.7606 130.03 25.7123C131.61 27.5893 132.4 30.3002 132.4 33.845L132.405 50.0839Z" fill="#C4CBCC"/>
<path d="M161.145 50.0839H156.778V34.9342C156.778 29.2967 154.665 26.4777 150.44 26.477C149.409 26.456 148.387 26.6607 147.449 27.0762C146.51 27.4916 145.68 28.107 145.02 28.8769C143.556 30.5668 142.792 32.726 142.875 34.9342V50.0839H138.508V23.5207H142.875V27.9305H142.981C143.847 26.3665 145.142 25.0676 146.722 24.1788C148.303 23.29 150.106 22.8465 151.93 22.8977C153.217 22.8204 154.504 23.0343 155.691 23.5227C156.878 24.011 157.933 24.7605 158.773 25.7123C160.353 27.5893 161.143 30.3002 161.143 33.845L161.145 50.0839Z" fill="#C4CBCC"/>
<path d="M178.646 50.706C176.857 50.7861 175.072 50.4957 173.408 49.8541C171.743 49.2124 170.238 48.2341 168.991 46.984C166.585 44.5026 165.382 41.2121 165.382 37.1124C165.382 32.6506 166.634 29.1658 169.137 26.6578C171.64 24.1498 175.022 22.8961 179.284 22.8967C183.35 22.8967 186.524 24.1158 188.806 26.5541C191.088 28.9923 192.228 32.3732 192.227 36.6967C192.227 40.934 190.997 44.3266 188.538 46.8746C187.263 48.1607 185.722 49.1676 184.016 49.8283C182.311 50.489 180.48 50.7882 178.646 50.706ZM178.965 26.477C177.711 26.4221 176.46 26.6445 175.307 27.1276C174.154 27.6106 173.128 28.3417 172.307 29.2659C170.673 31.1252 169.856 33.689 169.856 36.9574C169.7 39.6526 170.583 42.3076 172.333 44.4024C173.163 45.3056 174.188 46.0184 175.334 46.4895C176.481 46.9606 177.721 47.1782 178.964 47.1267C180.188 47.1977 181.412 46.9936 182.541 46.5302C183.67 46.0669 184.675 45.3567 185.476 44.4547C186.994 42.6735 187.753 40.1398 187.753 36.8537C187.753 33.5334 186.994 30.974 185.476 29.1756C184.679 28.2669 183.676 27.5504 182.547 27.0822C181.417 26.614 180.191 26.4069 178.965 26.477Z" fill="#C4CBCC"/>
<path d="M217 23.5207L207.838 36.9583L216.84 50.0849H211.757L206.403 41.4727C206.066 40.9369 205.666 40.2625 205.205 39.4495H205.098C205.009 39.6049 204.592 40.2793 203.846 41.4727L198.386 50.0849H193.353L202.648 37.0629L193.753 23.5216H198.836L204.109 32.6009C204.5 33.2756 204.882 33.9674 205.254 34.6764H205.36L212.178 23.5216L217 23.5207Z" fill="#C4CBCC"/>
<path d="M39.9897 12.0687V21.3696C39.9897 30.6352 30.6596 30.6714 30.514 30.6714H20.8898V21.3696C20.8898 12.103 30.513 12.0687 30.513 12.0687H39.9945" fill="#C4CBCC"/>
<path d="M20.821 32.2613V41.6335C20.821 50.9648 30.2165 51 30.3622 51H40.0607V41.6335C40.0607 32.3013 30.3641 32.2613 30.3641 32.2613H20.821Z" fill="#C4CBCC"/>
<path d="M9.69462 32.2613C9.69462 32.2613 0 32.3013 0 41.6335V51H9.69462C9.84417 51 19.2377 50.9648 19.2377 41.6335V32.2613H9.69462Z" fill="#C4CBCC"/>
<path d="M0 12V21.375C0 30.7044 9.39747 30.7425 9.54409 30.7425H19.2377V21.375C19.2377 12.038 9.54409 12.0029 9.54409 12.0029L0 12Z" fill="#C4CBCC"/>
</svg>
