<svg width="266" height="63" viewBox="0 0 266 63" fill="none" xmlns="http://www.w3.org/2000/svg">
<path d="M104.982 15.4577H78.038V21.5547H87.9858V47.5456H95.0446V21.5547H104.992V15.4577M131.333 36.6511C130.79 38.0521 129.906 39.2879 128.765 40.2412C127.624 41.1945 126.264 41.8338 124.814 42.0983C124.276 42.1969 123.731 42.2476 123.184 42.25C122.624 42.25 122.073 42.1958 121.544 42.0983C120.095 41.834 118.736 41.1947 117.597 40.2413C116.458 39.2878 115.576 38.0519 115.036 36.6511C114.405 35.0091 114.082 33.2604 114.083 31.4962C114.084 29.7357 114.407 27.9909 115.036 26.3522C115.576 24.95 116.457 23.7124 117.596 22.7571C118.735 21.8017 120.094 21.1604 121.544 20.8941C122.628 20.6888 123.74 20.6888 124.825 20.8941C126.273 21.1594 127.632 21.7991 128.771 22.7524C129.91 23.7058 130.792 24.9412 131.333 26.3414C132.597 29.6564 132.597 33.3361 131.333 36.6511ZM123.184 14.4939C118.776 14.4939 114.549 16.2858 111.432 19.4753C108.315 22.6649 106.564 26.9909 106.564 31.5017C106.564 36.0124 108.315 40.3384 111.432 43.528C114.549 46.7175 118.776 48.5094 123.184 48.5094C127.592 48.5094 131.82 46.7175 134.937 43.528C138.054 40.3384 139.805 36.0124 139.805 31.5017C139.805 26.9909 138.054 22.6649 134.937 19.4753C131.82 16.2858 127.592 14.4939 123.184 14.4939ZM139.905 15.4685H148.223L155.981 29.2545L163.738 15.4577H172.045L159.505 35.6764V47.5456H152.457V35.6764L139.905 15.4577M188.798 42.25C189.348 42.25 189.899 42.1958 190.428 42.0983C191.877 41.834 193.235 41.1947 194.375 40.2413C195.514 39.2878 196.396 38.0519 196.936 36.6511C198.207 33.3413 198.207 29.662 196.936 26.3522C196.396 24.9514 195.514 23.7155 194.375 22.7621C193.235 21.8086 191.877 21.1693 190.428 20.905C189.343 20.7058 188.232 20.7058 187.147 20.905C185.7 21.171 184.344 21.8111 183.206 22.7644C182.069 23.7178 181.189 24.9528 180.649 26.3522C180.02 27.9908 179.697 29.7357 179.697 31.4962C179.697 33.3156 180.035 35.0592 180.649 36.6511C181.189 38.0524 182.071 39.2889 183.21 40.2425C184.349 41.1961 185.708 41.835 187.158 42.0983C187.699 42.1981 188.248 42.2489 188.798 42.25ZM172.183 31.4962C172.183 26.9869 173.934 22.6623 177.049 19.4738C180.165 16.2852 184.391 14.4939 188.798 14.4939C193.205 14.4939 197.431 16.2852 200.547 19.4738C203.663 22.6623 205.413 26.9869 205.413 31.4962C205.413 36.0055 203.663 40.3302 200.547 43.5187C197.431 46.7073 193.205 48.4986 188.798 48.4986C184.391 48.4986 180.165 46.7073 177.049 43.5187C173.934 40.3302 172.183 36.0055 172.183 31.4962ZM253.533 34.8534L248.919 22.172L244.295 34.8426H253.533M255.576 40.4631H242.241L239.67 47.5239H231.817L244.517 15.4361H253.301L266 47.5239H258.169L255.576 40.4631ZM233.892 15.4577H206.948V21.5547H216.896V47.5456H223.954V21.5547H233.881V15.4577M49.2526 11.2125C44.3409 9.68876 39.2301 8.94372 34.098 9.00331C28.9658 8.94372 23.855 9.68876 18.9433 11.2125C7.72548 14.9054 0 22.5727 0 31.4096C0 43.8527 15.2393 54 34.098 54C52.9143 54 68.1959 43.896 68.1959 31.4096C68.1959 22.5727 60.4916 14.9054 49.2526 11.2125ZM34.098 44.3076C31.2829 44.3076 28.9864 38.6762 28.8594 31.5396C30.5315 31.7237 32.2883 31.767 34.098 31.767C35.897 31.767 37.6644 31.6803 39.347 31.5504C39.2095 38.6654 36.913 44.3076 34.098 44.3076ZM29.2087 26.0057C29.9495 20.9916 31.8544 17.4828 34.098 17.4828C36.2992 17.4828 38.1935 20.9916 38.9872 25.9948C35.7344 26.2924 32.4622 26.296 29.2087 26.0057ZM41.9822 25.5941C40.8392 17.7969 37.749 12.1655 34.098 12.1655C30.4469 12.1655 27.3567 17.7536 26.2137 25.5941C19.2925 24.4679 14.4456 21.9879 14.4456 19.0531C14.4456 15.0895 23.2611 11.884 34.098 11.884C44.9348 11.884 53.7609 15.0895 53.7609 19.0531C53.7609 21.9771 48.9139 24.5112 41.9928 25.5941H41.9822ZM4.97394 30.5974C4.97394 26.7637 6.43437 23.2008 8.94251 20.0927C8.90018 20.3093 8.90018 20.5476 8.90018 20.7209C8.90018 25.5508 15.9484 29.6011 25.7692 31.1389V32.2218C25.7692 41.1454 28.2033 48.726 31.5475 51.3359C16.6574 50.4371 4.98452 41.5027 4.98452 30.5974H4.97394ZM36.659 51.3901C40.0032 48.7693 42.4267 41.1887 42.4267 32.2651V31.1822C52.2475 29.6985 59.2957 25.5941 59.2957 20.775C59.2957 20.5476 59.2957 20.3202 59.2534 20.1361C61.7532 23.0443 63.16 26.768 63.222 30.6407C63.222 41.5027 51.5491 50.4371 36.659 51.3793V51.3901Z" fill="#C4CBCC"/>
</svg>
