<svg width="157" height="63" viewBox="0 0 157 63" fill="none" xmlns="http://www.w3.org/2000/svg">
<path d="M0.5 0.836969C0.619216 0.836969 0.733014 0.84791 0.85223 0.84791C4.39079 0.84791 7.92935 0.84791 11.4679 0.84791C11.7118 0.84791 11.7876 0.908083 11.7876 1.16519C11.7768 4.76464 11.7768 8.35862 11.7876 11.9581C11.7876 12.2152 11.7118 12.2699 11.4679 12.2699C7.81013 12.2644 4.15778 12.2699 0.5 12.2699V0.836969Z" fill="#C4CBCC"/>
<path d="M28.3468 25.0594C28.8779 24.403 29.3277 23.7739 29.8533 23.2159C32.281 20.6394 35.218 19.0257 38.7132 18.5388C42.3114 18.0356 45.8337 18.3857 49.1718 19.8955C52.7483 21.5092 55.1759 24.2607 56.6607 27.8821C57.3977 29.6763 57.8095 31.5526 58.0263 33.4782C58.1672 34.7199 58.1943 35.9672 58.1943 37.2144C58.1943 44.7634 58.1943 52.3124 58.1943 59.8614C58.1943 60.113 58.1509 60.1951 57.8746 60.1951C54.4823 60.1841 51.0847 60.1841 47.6924 60.1951C47.4486 60.1951 47.3835 60.1349 47.3835 59.8833C47.3889 52.7828 47.3889 45.6769 47.3835 38.571C47.3835 37.0065 47.2481 35.4639 46.7983 33.9596C46.251 32.1216 45.3514 30.5133 43.7799 29.3536C42.6799 28.544 41.4335 28.0845 40.1005 27.8711C38.5778 27.6304 37.055 27.5867 35.5648 28.0243C32.3352 28.9761 30.1622 31.0548 29.1434 34.3151C28.634 35.9617 28.4227 37.6575 28.4227 39.3752C28.4173 46.2076 28.4227 53.0345 28.4227 59.8669C28.4227 66.6993 28.3035 60.2279 28.0542 60.2279C24.7216 60.2279 21.3943 60.2279 18.0617 60.2279C17.8341 60.2279 17.7582 60.1841 17.7582 59.9325C17.7637 46.4482 17.7637 32.9585 17.7582 19.4688C17.7582 19.25 17.8016 19.1788 18.0346 19.1788C21.3727 19.1898 24.7162 19.1898 28.0542 19.1788C28.2818 19.1788 28.336 19.2445 28.336 19.4633C28.3252 21.2138 28.336 22.9588 28.336 24.7093V25.0539L28.3468 25.0594Z" fill="#C4CBCC"/>
<path d="M64.081 24.6601C64.081 17.6089 64.081 10.5631 64.0756 3.51193C64.0756 3.24936 64.1243 3.16183 64.4115 3.16183C67.7713 3.17277 71.131 3.17277 74.4853 3.16183C74.7725 3.16183 74.8159 3.24936 74.8159 3.51193C74.8105 8.62118 74.8105 13.7304 74.8159 18.8397C74.8159 19.2281 74.7671 19.1843 75.1681 19.1843C77.5416 19.1843 79.9151 19.1843 82.2886 19.1843C82.5108 19.1843 82.5704 19.239 82.5704 19.4688C82.5649 22.3626 82.5649 25.2618 82.5704 28.1556C82.5704 28.3853 82.5053 28.4346 82.2886 28.4346C79.888 28.4236 77.4874 28.4346 75.0868 28.4236C74.8863 28.4236 74.8105 28.4565 74.8105 28.6862C74.8213 33.7408 74.8105 38.7953 74.8321 43.8499C74.8321 45.015 74.8972 46.1747 75.1844 47.318C75.6233 49.0685 76.7884 49.993 78.5008 50.2884C79.7579 50.5072 81.0314 50.5619 82.3048 50.5564C82.5162 50.5564 82.5758 50.6111 82.5758 50.8245C82.5704 54.0027 82.5704 57.181 82.5758 60.3592C82.5758 60.589 82.4945 60.6163 82.2994 60.6218C80.4028 60.6272 78.5062 60.6054 76.6204 60.392C74.2902 60.1349 72.0306 59.6481 69.9659 58.461C67.5816 57.088 66.1022 54.9928 65.2406 52.4054C64.7367 50.8792 64.4874 49.2983 64.314 47.7064C64.1081 45.7918 64.081 43.8717 64.0864 41.9517C64.0864 36.186 64.0864 30.4203 64.0864 24.6601H64.081Z" fill="#C4CBCC"/>
<path d="M143.967 30.1249V59.8505C143.967 60.0966 143.848 60.2224 143.609 60.2224C140.25 60.2224 136.895 60.2224 133.536 60.2279C133.281 60.2279 133.227 60.1513 133.227 59.9052C133.227 40.0425 133.227 20.1799 133.227 0.317277C133.227 0.0711138 133.286 0 133.536 0C136.912 0.0109406 140.288 0.0109406 143.664 0C143.913 0 143.972 0.0656435 143.972 0.317277C143.967 10.2513 143.972 20.1908 143.972 30.1249H143.967Z" fill="#C4CBCC"/>
<path d="M11.5046 39.687V59.8778C11.5046 60.1076 11.3854 60.2224 11.1523 60.2224C7.81971 60.2224 4.49249 60.2224 1.15985 60.2279C0.899737 60.2279 0.813035 60.1841 0.813035 59.8942C0.823872 46.4373 0.823872 32.9749 0.813035 19.518C0.813035 19.2335 0.894318 19.1843 1.15443 19.1843C4.50332 19.1952 7.85222 19.1952 11.2011 19.1843C11.4558 19.1843 11.5046 19.2609 11.5046 19.5016C11.4992 26.23 11.5046 32.9585 11.5046 39.6924V39.687Z" fill="#C4CBCC"/>
<path d="M127.584 37.4496C127.314 34.4847 126.517 31.6894 125.103 29.0691C122.875 24.9555 119.689 21.8976 115.392 20.0705C111.311 18.3309 107.074 17.9699 102.739 18.7467C98.5932 19.4907 94.9896 21.3834 91.9821 24.3373C88.1781 28.0735 86.0322 32.6467 85.642 38.0131C85.3656 41.793 85.9292 45.4362 87.5061 48.8935C89.2943 52.8102 91.9876 55.9118 95.7049 58.0726C98.7233 59.8231 101.975 60.8132 105.459 61.0156C108.689 61.2016 111.853 60.8679 114.937 59.8614C118.898 58.5704 122.209 56.2893 124.973 53.1712C125.124 53.0017 125.043 52.9415 124.913 52.843C122.474 50.9776 120.041 49.1123 117.608 47.236C117.446 47.1101 117.359 47.0992 117.218 47.2688C116.676 47.9088 116.042 48.4504 115.359 48.9318C111.794 51.459 107.87 52.1975 103.627 51.2949C101.297 50.7971 99.3573 49.6265 97.84 47.7611C96.8863 46.5905 96.2631 45.2448 95.8404 43.8006C95.7429 43.4615 95.732 43.4669 96.0734 43.4669H127.216C127.308 43.4669 127.395 43.4615 127.487 43.4669C127.617 43.4779 127.682 43.4451 127.677 43.2919C127.644 41.3445 127.752 39.397 127.574 37.4496H127.584ZM117.077 35.8085H106.57V35.8523C103.086 35.8523 99.6012 35.8523 96.1168 35.8578C95.8783 35.8578 95.8079 35.8031 95.8296 35.5569C95.938 34.3151 96.4094 33.2156 97.0976 32.2036C98.5174 30.114 100.49 28.7792 102.885 28.1009C105.73 27.2968 108.564 27.3624 111.333 28.4291C113.831 29.3973 115.744 31.0548 116.877 33.5438C117.153 34.151 117.326 34.791 117.386 35.4584C117.419 35.8031 117.413 35.8031 117.077 35.8031V35.8085Z" fill="#C4CBCC"/>
<path d="M152.555 52.4273C150.42 52.4273 148.632 54.2379 148.632 56.4042C148.632 58.5595 150.404 60.3647 152.555 60.3811C154.674 60.3975 156.495 58.5704 156.5 56.4206C156.5 54.2489 154.706 52.4273 152.555 52.4273ZM152.555 59.6863C150.675 59.7082 149.282 58.3133 149.266 56.4151C149.255 54.5497 150.626 53.1439 152.474 53.122C154.43 53.1056 155.806 54.506 155.774 56.5683C155.752 58.0781 154.603 59.659 152.55 59.6809L152.555 59.6863Z" fill="#C4CBCC"/>
<path d="M153.47 56.6886C153.947 56.5518 154.261 56.2619 154.342 55.7532C154.434 55.2061 154.331 54.7138 153.86 54.3692C153.621 54.1941 153.34 54.1176 153.047 54.1121C152.451 54.1011 151.855 54.1121 151.259 54.0957C151.053 54.0902 150.982 54.1449 150.982 54.3637C150.993 55.5945 150.982 56.8199 150.982 58.0507C150.982 59.2815 150.982 58.6743 151.606 58.6743C151.779 58.6743 151.839 58.6306 151.833 58.4446C151.822 57.9741 151.828 57.4982 151.833 57.0223C151.833 56.9457 151.795 56.8527 151.898 56.8089C152.077 56.7214 152.451 56.8363 152.554 57.0113C152.852 57.4982 153.145 57.9905 153.443 58.4774C153.491 58.5594 153.518 58.6688 153.649 58.6688C153.898 58.6688 154.142 58.6688 154.44 58.6688C154.044 58.0015 153.67 57.3833 153.296 56.7488C153.367 56.7269 153.416 56.705 153.464 56.6886H153.47ZM152.467 56.0814C151.839 56.0814 151.833 56.0814 151.844 55.4742C151.844 55.2499 151.747 54.96 151.887 54.8178C152.028 54.6755 152.315 54.7849 152.538 54.774C152.716 54.7685 152.895 54.7631 153.074 54.8178C153.394 54.9107 153.518 55.0639 153.524 55.4031C153.529 55.7422 153.394 55.9282 153.085 56.0322C152.874 56.1033 152.657 56.0595 152.473 56.0759L152.467 56.0814Z" fill="#C4CBCC"/>
</svg>
